# xmcd
#
# Track frame offsets: 
#        150
#        6529
#        22980
#        33783
#        47544
#        62408
#        71166
#        86318
#        97995
#        109496
#        120949
#        130333
#        141928
#        153339
#        170368
#        189492
#
# Disc length: 2753 seconds
#
# Revision: 2
# Processed by: cddbd v1.5.2PL0 Copyright (c) Steve Scherf et al.
# Submitted via: ExactAudioCopy v0.99pb5
#
DISCID=ca0abf10
DTITLE=Various Artist - Лучшие советские песни
DYEAR=2001
DGENRE=Retro
TTITLE0=Гимн СССР
TTITLE1=Зори московские
TTITLE2=Обнимая небо крепкими руками
TTITLE3=Широка страна моя родная
TTITLE4=Крейсер Аврора
TTITLE5=Все выше и выше
TTITLE6=Погоня
TTITLE7=Спортивный марш
TTITLE8=С чего начинается Родина
TTITLE9=Я люблю тебя, жизнь
TTITLE10=Марш монтажников
TTITLE11=Легко на сердце от песни веселой
TTITLE12=Любимый город
TTITLE13=Русское поле
TTITLE14=Журавли
TTITLE15=Надежда
EXTD=Лучшие советские песни [CD)  \n\nLabel: Театр Рекламы\n\nГод выпу
EXTD=ска: 2001\n\n\n1. Гимн СССР    \n2. Зори московские    \n3. Обним
EXTD=ая небо крепкими руками    \n4. Широка страна моя родная    \n5. 
EXTD=Крейсер Аврора    \n6. Все выше и выше    \n7. Погоня    \n8. Спо
EXTD=ртивный марш    \n9. С чего начинается Родина    \n10. Я люблю те
EXTD=бя, жизнь    \n11. Марш монтажников    \n12. Легко на сердце от п
EXTD=есни веселой    \n13. Любимый город    \n14. Русское поле    \n15
EXTD=Журавли    \n16. Надежда 
EXTT0=
EXTT1=
EXTT2=
EXTT3=
EXTT4=
EXTT5=
EXTT6=
EXTT7=
EXTT8=
EXTT9=
EXTT10=
EXTT11=
EXTT12=
EXTT13=
EXTT14=
EXTT15=
PLAYORDER=
